<?xml version="1.0" encoding="UTF-8" standalone="no"?>
<svg
   width="470"
   height="360"
   viewBox="0 0 470 360"
   fill="none"
   version="1.1"
   id="svg386"
   sodipodi:docname="Diskoła.svg"
   inkscape:version="1.2 (dc2aedaf03, 2022-05-15)"
   xmlns:inkscape="http://www.inkscape.org/namespaces/inkscape"
   xmlns:sodipodi="http://sodipodi.sourceforge.net/DTD/sodipodi-0.dtd"
   xmlns="http://www.w3.org/2000/svg"
   xmlns:svg="http://www.w3.org/2000/svg">
  <defs
     id="defs390">
    <clipPath
       clipPathUnits="userSpaceOnUse"
       id="clipPath550">
      <rect
         style="font-variation-settings:normal;opacity:1;vector-effect:none;fill:#404eed;fill-opacity:1;fill-rule:evenodd;stroke-width:1;stroke-linecap:butt;stroke-linejoin:miter;stroke-miterlimit:4;stroke-dasharray:none;stroke-dashoffset:0;stroke-opacity:1;-inkscape-stroke:none;stop-color:#000000;stop-opacity:1"
         id="rect552"
         width="479.98788"
         height="357.88135"
         x="0.49636805"
         y="0.49636805" />
    </clipPath>
  </defs>
  <sodipodi:namedview
     id="namedview388"
     pagecolor="#ffffff"
     bordercolor="#666666"
     borderopacity="1.0"
     inkscape:showpageshadow="2"
     inkscape:pageopacity="0.0"
     inkscape:pagecheckerboard="0"
     inkscape:deskcolor="#d1d1d1"
     showgrid="false"
     inkscape:lockguides="false"
     showguides="true"
     inkscape:zoom="2.0146341"
     inkscape:cx="305.51453"
     inkscape:cy="180.1816"
     inkscape:window-width="1920"
     inkscape:window-height="1017"
     inkscape:window-x="-8"
     inkscape:window-y="-8"
     inkscape:window-maximized="1"
     inkscape:current-layer="svg386" />
  <path
     d="M 449.301,223.5 H 13.7007 V 359.4 H 449.301 Z"
     fill="#5865f2"
     id="path4" />
  <path
     d="M 13.7007,265.5 449.301,230.4 v -6.9 H 13.7007 Z"
     fill="#4b59f2"
     id="path6" />
  <path
     d="m 449.301,223.5 h -3.2 v 135.9 h 3.2 z"
     fill="#3543de"
     id="path8" />
  <path
     d="m 410.001,223.5 h -3.2 v 135.9 h 3.2 z"
     fill="#3543de"
     id="path10" />
  <path
     d="m 370.701,223.5 h -3.2 v 135.9 h 3.2 z"
     fill="#3543de"
     id="path12" />
  <path
     d="m 331.401,223.5 h -3.2 v 135.9 h 3.2 z"
     fill="#3543de"
     id="path14" />
  <path
     d="m 292.001,223.5 h -3.2 v 135.9 h 3.2 z"
     fill="#3543de"
     id="path16" />
  <path
     d="m 252.701,223.5 h -3.2 v 135.9 h 3.2 z"
     fill="#3543de"
     id="path18" />
  <path
     d="m 213.401,223.5 h -3.2 v 135.9 h 3.2 z"
     fill="#3543de"
     id="path20" />
  <path
     d="m 174.101,223.5 h -3.2 v 135.9 h 3.2 z"
     fill="#3543de"
     id="path22" />
  <path
     d="m 134.801,223.5 h -3.2 v 135.9 h 3.2 z"
     fill="#3543de"
     id="path24" />
  <path
     d="m 95.5007,223.5 h -3.1999 v 135.9 h 3.1999 z"
     fill="#3543de"
     id="path26" />
  <path
     d="m 56.2007,223.5 h -3.2 v 135.9 h 3.2 z"
     fill="#3543de"
     id="path28" />
  <path
     d="m 16.9008,223.5 h -3.2001 v 135.9 h 3.2001 z"
     fill="#3543de"
     id="path30" />
  <path
     d="m 131.901,97.8 c -4.1,-13.6 -6.3,-20.1 1.1,-24.1 7.4,-4 29.9,-1.3 40.4,1.2 10.5,2.5 12,5.1 5.1,15.4 z"
     fill="#fff4b3"
     id="path32" />
  <path
     d="m 127.101,220.1 c -1.6,-40.4 -0.6,-74 0.7,-91.9 -6.7,-4.4 -9.8,-7.8 -11.1,-9.7 -0.27,-0.366 -0.408,-0.813 -0.389,-1.268 0.018,-0.454 0.19,-0.889 0.489,-1.232 10.6,-13.3 19.7,-24.9 29.2,-30.3 9.5,-5.4 22.5,-6.8 43.2,13.8 0.198,0.2637 0.296,0.589 0.278,0.918 -0.018,0.33 -0.152,0.642 -0.378,0.882 -1.644,1.632 -3.38,3.168 -5.2,4.6 4.2,7.5 10.3,18.9 10.3,18.9 h 4.8 c 3.076,0 6.027,1.222 8.202,3.398 2.176,2.175 3.398,5.125 3.398,8.202 0.1,9.3 -2.1,20.5 -6.4,34.9 19.2,15.6 14.5,48.7 14.5,48.7 z"
     fill="#29cc7a"
     id="path34" />
  <path
     d="m 204.201,171.3 c 0.6,-2.1 1.2,-4 1.7,-6 l -15.1,8.4 c 0,0 -23.9,-16.1 -64,-26.1 -0.7,18.6 -0.8,43.8 0.3,72.5 h 91.6 c 0,0 4.7,-33.2 -14.5,-48.8 z"
     fill="#8cd9ff"
     id="path36" />
  <path
     d="m 208.001,175 c -1.166,-1.333 -2.437,-2.57 -3.8,-3.7 0.6,-2.1 1.2,-4 1.7,-6 l -15.1,8.4 c 0,0 -23.9,-16.1 -64,-26.1 -0.1,2.3 -0.2,4.8 -0.2,7.3 30.7,12.7 47.2,34.5 49.1,65.2 h 22.7 c 4,-17.6 7.2,-33 9.6,-45.1 z"
     fill="#bae8ff"
     id="path38" />
  <path
     d="m 138.901,135.9 h 0.4 c 0.2,-0.2 0.4,-0.3 0.5,-0.6 l 8.7,-28.1 c 0.058,-0.118 0.091,-0.247 0.094,-0.379 0.003,-0.131 -0.022,-0.262 -0.075,-0.382 -0.052,-0.121 -0.131,-0.229 -0.229,-0.316 -0.099,-0.087 -0.215,-0.151 -0.342,-0.188 -0.126,-0.037 -0.259,-0.046 -0.389,-0.027 -0.13,0.02 -0.254,0.068 -0.364,0.141 -0.109,0.073 -0.201,0.169 -0.27,0.282 -0.068,0.112 -0.111,0.238 -0.125,0.369 l -8.4,27.2 c -3.629,-1.548 -7.11,-3.423 -10.4,-5.6 h -0.2 c 0,0.6 -0.1,1.3 -0.1,1.9 3.455,2.223 7.103,4.131 10.9,5.7 z"
     fill="#000000"
     id="path40" />
  <path
     d="m 176.101,90.7 -35.8,2.6 c 40,7.6 41.7,8.7 35.8,-2.6 z"
     fill="#000000"
     id="path42" />
  <path
     d="m 195.901,195.5 -3.8,-35.5 c -0.075,-0.627 -0.385,-1.203 -0.868,-1.611 -0.482,-0.408 -1.101,-0.619 -1.732,-0.589 h -3.8 l -1.7,-3.3 c -0.526,-0.909 -1.359,-1.6 -2.349,-1.948 -0.99,-0.349 -2.073,-0.332 -3.051,0.048 -1.009,0.429 -1.827,1.211 -2.3,2.2 -7.5,16.1 -11.2,42.6 -11.9,47.6 -0.016,0.234 0.043,0.467 0.169,0.665 0.126,0.198 0.312,0.35 0.531,0.435 l 21.6,6.9 c 0.12,0.063 0.256,0.089 0.391,0.076 0.135,-0.013 0.263,-0.066 0.369,-0.15 0.106,-0.085 0.185,-0.199 0.228,-0.328 0.042,-0.129 0.046,-0.267 0.012,-0.398 l -0.8,-10.1 8,-2.5 c 0.316,-0.092 0.59,-0.293 0.773,-0.568 0.183,-0.274 0.263,-0.604 0.227,-0.932 z"
     fill="#eb459f"
     id="path44" />
  <path
     d="m 177.401,167.2 -3.3,34.5"
     stroke="#d11583"
     stroke-width="2"
     stroke-miterlimit="10"
     stroke-linecap="round"
     id="path46" />
  <path
     d="m 167.154,116.711 c 1.382,-0.558 1.631,-3.17 0.555,-5.833 -1.076,-2.662 -3.068,-4.368 -4.451,-3.81 -1.383,0.559 -1.631,3.17 -0.555,5.833 1.075,2.663 3.068,4.369 4.451,3.81 z"
     fill="#000000"
     id="path48" />
  <path
     d="m 177.463,122.24 c 1.783,-3.368 1.567,-6.978 -0.483,-8.063 -2.05,-1.086 -5.157,0.765 -6.941,4.132 -1.783,3.368 -1.566,6.978 0.483,8.064 2.05,1.085 5.158,-0.765 6.941,-4.133 z"
     stroke="#ffffff"
     stroke-width="2"
     stroke-miterlimit="10"
     id="path50" />
  <path
     d="m 192.188,122.26 c 1.783,-3.367 1.567,-6.977 -0.483,-8.063 -2.05,-1.085 -5.157,0.765 -6.94,4.133 -1.783,3.368 -1.567,6.978 0.483,8.063 2.05,1.085 5.157,-0.765 6.94,-4.133 z"
     stroke="#ffffff"
     stroke-width="2"
     stroke-miterlimit="10"
     id="path52" />
  <path
     d="m 182.074,116.228 c 0.922,-0.372 0.831,-2.749 -0.204,-5.31 -1.034,-2.56 -2.62,-4.334 -3.542,-3.961 -0.921,0.372 -0.83,2.749 0.204,5.31 1.035,2.56 2.621,4.334 3.542,3.961 z"
     fill="#000000"
     id="path54" />
  <path
     d="m 191.601,142.4 c -7.721,0.025 -15.213,-2.625 -21.2,-7.5 -6.2,-5.1 -3.7,-5.7 0.2,-5.8 3.9,-0.1 22.6,0.6 28,1.4 5.4,0.8 6.4,11.5 -7,11.9 z"
     fill="#912869"
     id="path56" />
  <path
     d="m 191.601,142.4 c -7.721,0.025 -15.213,-2.625 -21.2,-7.5 -6.2,-5.1 -3.7,-5.7 0.2,-5.8 3.9,-0.1 22.6,0.6 28,1.4 5.4,0.8 6.4,11.5 -7,11.9 z"
     fill="#611b46"
     id="path58" />
  <path
     d="m 191.201,153.6 -0.4,-3.7 c 2.825,-0.225 5.578,-1.007 8.1,-2.3"
     stroke="#000000"
     stroke-width="2"
     stroke-linecap="round"
     stroke-linejoin="round"
     id="path60" />
  <path
     d="m 195.301,141.9 c -5.4,-5.2 -12.7,-9.1 -26.2,-8.2 11.6,10.7 23.7,8.9 26.2,8.2 z"
     fill="#eb459f"
     id="path62" />
  <path
     d="m 178.101,118.7 h 6.1"
     stroke="#ffffff"
     stroke-width="2"
     stroke-miterlimit="10"
     id="path64" />
  <path
     d="m 168.901,119.9 -25.8,-10.5 c -0.541,-0.21 -1.125,-0.285 -1.701,-0.221 -0.577,0.065 -1.129,0.268 -1.611,0.592 -0.481,0.324 -0.877,0.76 -1.153,1.27 -0.277,0.51 -0.426,1.079 -0.435,1.659 v 0 c -0.012,0.683 0.182,1.353 0.557,1.924 0.374,0.57 0.912,1.015 1.543,1.276 l 1.7,0.8"
     stroke="#ffffff"
     stroke-width="2"
     stroke-miterlimit="10"
     stroke-linecap="round"
     id="path66" />
  <path
     d="m 163.501,106.8 c 2.029,0.052 4.055,-0.218 6,-0.8"
     stroke="#000000"
     stroke-width="2"
     stroke-miterlimit="10"
     stroke-linecap="round"
     id="path68" />
  <path
     d="m 178.501,106.8 c 1.279,0.033 2.548,-0.241 3.7,-0.8"
     stroke="#000000"
     stroke-width="2"
     stroke-miterlimit="10"
     stroke-linecap="round"
     id="path70" />
  <path
     d="m 135.301,94.2999 c 35.7,-0.5 47.8,-4.5 58,-8.2 10.2,-3.7 9.2,-6.6 1.4,-6.3 -7.8,0.3 -34.5,10.5 -59.4,14.5 z"
     fill="#fff4b3"
     id="path72" />
  <path
     d="m 126.501,158.1 -0.2,9.8 4.9,-1.9 c 0,0 26.1,-10.9 32.3,-12.4 6.2,-1.5 12.1,1.4 21,4.8 8.9,3.4 6.6,6.5 3.8,9.5 -2.8,3 -2.7,2.8 -17.4,2.8 -28.1,20.3 -36.7,32.2 -48.2,32.2 -6.9,0 -12.8,-3.1 -17.2,-16.7 -4.4,-13.6 3.8,-19.8 21,-28.1 z"
     fill="#29cc7a"
     id="path74" />
  <path
     d="m 224.401,169.3 -15,-18.1 -25.6,25.5 18.1,15.1 c -0.2,1.7 0,3 0.9,3.9 2.7,2.7 10.6,-0.8 17.7,-7.8 7.1,-7 10.5,-15 7.8,-17.7 -0.9,-0.9 -2.2,-1.1 -3.9,-0.9 z"
     fill="#ffffff"
     id="path76" />
  <path
     d="m 199.965,167.378 c 7.03,-7.03 11.209,-14.248 9.334,-16.122 -1.874,-1.875 -9.092,2.304 -16.122,9.334 -7.029,7.029 -11.208,14.247 -9.334,16.122 1.875,1.874 9.093,-2.305 16.122,-9.334 z"
     fill="#ffffff"
     id="path78" />
  <path
     d="m 198.227,165.664 c 6.366,-6.366 10.639,-12.413 9.546,-13.506 -1.093,-1.094 -7.14,3.18 -13.506,9.546 -6.365,6.365 -10.639,12.412 -9.546,13.506 1.094,1.093 7.141,-3.181 13.506,-9.546 z"
     fill="#bae8ff"
     id="path80" />
  <path
     d="m 223.001,161.7 c 4.3,0.6 6,4.5 4.3,9.7 -0.193,0.554 -0.525,1.048 -0.965,1.435 -0.44,0.388 -0.973,0.655 -1.546,0.775 -0.574,0.121 -1.169,0.092 -1.728,-0.085 -0.558,-0.178 -1.062,-0.496 -1.461,-0.925 -0.989,-1.049 -1.588,-2.406 -1.698,-3.844 -0.109,-1.438 0.279,-2.869 1.098,-4.056 z"
     fill="#29cc7a"
     id="path82" />
  <path
     d="m 215.501,158.7 c -0.2,3.7 -2.4,7.4 -4,9.8 -0.432,0.673 -0.627,1.472 -0.555,2.268 0.073,0.797 0.409,1.547 0.955,2.132 l 0.8,0.7 c 0.26,0.266 0.572,0.477 0.915,0.622 0.344,0.144 0.712,0.218 1.085,0.218 0.372,0 0.741,-0.074 1.084,-0.218 0.344,-0.145 0.655,-0.356 0.916,-0.622 3.013,-2.75 5.137,-6.336 6.1,-10.3 1.2,-5.4 -2.7,-9.2 -9.5,-7.4 z"
     fill="#29cc7a"
     id="path84" />
  <path
     d="m 135.301,94.2999 12.2,-1 29.3,-5.8 -7.3,-7.2 h -34.9 z"
     fill="#fff4b3"
     id="path86" />
  <path
     d="m 194.401,131.2 -7,-0.4 c 0.8,4.2 2.8,6.4 4.5,5.7 1.7,-0.7 2.3,-4.4 2.5,-5.3 z"
     fill="#ffffff"
     id="path88" />
  <path
     d="m 172.801,130.3 c 0.9,4.8 2.7,7.3 4.4,6.5 1.7,-0.8 2.1,-4.8 2.4,-6.4 z"
     fill="#ffffff"
     id="path90" />
  <path
     d="M 465.401,223.5 H 4.30078"
     stroke="#2835bd"
     stroke-width="8"
     stroke-linecap="round"
     stroke-linejoin="round"
     id="path92" />
  <path
     d="m 184.401,174.7 c 0.075,0.206 0.215,0.382 0.4,0.5 0.1,0 0.1,0 0.1,0.1 0,0.1 7.2,-3.5 13.4,-9.7 v -0.2 l -3.9,-3.8 -3.2,-3.3 -4.2,0.2 -8.2,-3.1 -0.3,0.7 c 3.5,1.2 4.2,13.8 5.9,18.6 z"
     fill="#eb459f"
     id="path94" />
  <path
     d="m 185.701,157.9 c 1.688,3.416 3.19,6.921 4.5,10.5 0.069,0.161 0.179,0.302 0.319,0.407 0.141,0.105 0.306,0.172 0.481,0.193 h 0.3 c 0.21,-0.088 0.384,-0.244 0.493,-0.444 0.11,-0.201 0.147,-0.432 0.107,-0.656 -0.1,-0.3 -2.3,-6.1 -4.3,-10 z"
     fill="#d11583"
     id="path96" />
  <path
     d="m 186.901,199.7 h -0.2 l -7.7,2.3 c -0.142,0.043 -0.271,0.12 -0.375,0.225 -0.105,0.104 -0.182,0.233 -0.225,0.375 -0.029,0.163 -0.016,0.331 0.036,0.488 0.053,0.157 0.143,0.299 0.264,0.412 l 6.8,5.9 c 0.041,0.096 0.112,0.177 0.202,0.23 0.089,0.054 0.194,0.079 0.298,0.07 0.131,0.004 0.262,-0.021 0.383,-0.072 0.121,-0.052 0.229,-0.13 0.317,-0.228 0.081,-0.091 0.144,-0.197 0.183,-0.312 0.039,-0.116 0.055,-0.238 0.046,-0.359 -0.01,-0.122 -0.044,-0.24 -0.1,-0.349 -0.057,-0.108 -0.135,-0.203 -0.229,-0.28 l -5.6,-4.9 6,-1.8 z"
     fill="#d11583"
     id="path98" />
  <path
     d="m 126.001,167.6 -14.1,6.7"
     stroke="#000000"
     stroke-width="2"
     stroke-linecap="round"
     stroke-linejoin="round"
     id="path100" />
  <path
     d="m 180.901,82.7999 c -15.413,4.1293 -31.035,7.434 -46.8,9.9"
     stroke="#ffc619"
     stroke-width="2"
     stroke-miterlimit="10"
     stroke-linecap="round"
     id="path102" />
  <path
     d="m 193.401,178.6 10.8,9.9 c 0.339,0.298 0.766,0.478 1.217,0.514 0.45,0.036 0.9,-0.074 1.283,-0.314 0.242,-0.172 0.444,-0.397 0.589,-0.656 0.145,-0.26 0.23,-0.549 0.249,-0.846 0.019,-0.297 -0.028,-0.595 -0.139,-0.871 -0.11,-0.277 -0.281,-0.525 -0.499,-0.727 l -10.5,-10.1 c -0.321,-0.291 -0.723,-0.477 -1.153,-0.53 -0.429,-0.054 -0.865,0.026 -1.247,0.23 l -0.3,0.2 c -0.268,0.162 -0.493,0.384 -0.659,0.649 -0.166,0.264 -0.268,0.564 -0.297,0.875 -0.029,0.311 0.015,0.625 0.129,0.916 0.114,0.291 0.294,0.551 0.527,0.76 z"
     fill="#bae8ff"
     id="path104" />
  <path
     d="m 220.501,170.5 c 1.824,-2.421 2.964,-5.288 3.3,-8.3"
     stroke="#000000"
     stroke-width="2"
     stroke-linecap="round"
     stroke-linejoin="round"
     id="path106" />
  <path
     d="m 309.19,32.2318 c 0.911,-4.3233 -1.943,-8.5851 -6.374,-9.519 -4.432,-0.9338 -8.763,1.8139 -9.674,6.1372 -0.911,4.3234 1.943,8.5851 6.374,9.519 4.432,0.9338 8.763,-1.8139 9.674,-6.1372 z"
     fill="#2a39d4"
     id="path108" />
  <path
     d="m 362.699,106.5 c 7.3,0.4 16.1,3.4 27.1,15.6 6.2,-6.2 9.2,-4.5 17.5,2.6 8.3,7.1 26.1,20.6 30.5,25.1 4.4,4.5 7.7,14.2 -4.3,21.5 -12,7.3 -33.3,-6.1 -44.5,-13.9 -11.2,-7.8 -26.3,-16.9 -26.3,-16.9 z"
     fill="#2331b5"
     id="path110" />
  <path
     d="m 403.999,121.9 c 2.908,4.79 5.353,9.846 7.3,15.1 2.3,7.2 -0.6,11.4 -6.5,16.3 -5.9,4.9 -8.3,3.8 -11.4,1.3 -0.187,-0.107 -0.407,-0.143 -0.619,-0.101 -0.211,0.041 -0.401,0.157 -0.534,0.327 -0.134,0.17 -0.202,0.381 -0.192,0.597 0.01,0.215 0.097,0.42 0.245,0.577 1.585,1.391 3.594,2.202 5.7,2.3 2.5,0 5,-1.2 8,-3.7 5.1,-4.3 9.9,-9.2 6.9,-18.2 -1.112,-3.238 -2.483,-6.382 -4.1,-9.4 -0.629,-1.211 -1.477,-2.296 -2.5,-3.2 z"
     fill="#3442d9"
     id="path112" />
  <path
     d="m 388.899,151.8 c 5.4,5.2 18.3,14.4 18.3,14.4"
     stroke="#000000"
     stroke-width="2"
     stroke-miterlimit="10"
     stroke-linecap="round"
     id="path114" />
  <path
     d="m 335.881,105.224 c 25.867,-7.3688 41.452,-32.2448 34.81,-55.5625 -6.642,-23.3178 -32.997,-36.2471 -58.864,-28.8787 -25.867,7.3685 -41.452,32.2446 -34.81,55.5623 6.643,23.3177 32.997,36.2469 58.864,28.8789 z"
     fill="#ff78b9"
     id="path116" />
  <path
     d="m 289.799,58.2001 c 0,9.6 4.6,18.1 10.3,19 5.7,0.9 7.1,-4.1 7.3,-13.4 0,-2.4 0.1,-4.7999 0.3,-7.2999 0.6,-8.6 -2.5,-13.3001 -7.6,-14.1001 -5.1,-0.8 -10.3,6.2 -10.3,15.8 z"
     fill="#ffffff"
     id="path118" />
  <path
     d="m 332.199,58.8001 c -0.989,-1.287 -1.575,-2.8389 -1.682,-4.4589 -0.106,-1.62 0.27,-3.2353 1.082,-4.6411 8,-13.6 15.3,-14.1 20.5,-13.8 5.2,0.3 9.2,5.2 4.9,17.6 6.1,6.6 3.6,12.7 -5.1,13.5 -8.7,0.8 -13.4,0.1 -19.7,-8.2 z"
     fill="#d11583"
     id="path120" />
  <path
     d="m 389.399,192.1 c 1.2,-32.8 -9.3,-37 -10.3,-46.8 -1,-9.8 -2,-23 -12.8,-37.2 0,0 1.3,-13.2998 2,-22.1998 0.018,-0.3504 -0.042,-0.7003 -0.174,-1.0252 -0.133,-0.3248 -0.335,-0.6167 -0.592,-0.855 -0.258,-0.2384 -0.564,-0.4174 -0.898,-0.5245 -0.334,-0.1071 -0.688,-0.1396 -1.036,-0.0953 -7.008,1.1155 -14.108,1.5509 -21.2,1.3 -12.2,-0.4 -28.7,-1.6 -46.3,15.4998 l 5.7,8 -0.4,0.7 c -0.282,0.482 -0.455,1.021 -0.506,1.578 -0.05,0.556 0.022,1.117 0.213,1.642 0.191,0.526 0.496,1.002 0.892,1.396 0.397,0.394 0.875,0.696 1.401,0.884 l 1.1,0.4 c 0,0 -16.1,9.7 -11.3,31.6 4.8,21.9 -0.3,43.1 7.8,49.6 1.639,1.303 3.585,2.161 5.652,2.494 2.066,0.333 4.184,0.128 6.148,-0.594 l 37.1,19.8 c 13.5,14.9 32.7,31.6 32.7,31.6 l -14.8,35.3 15.6,39.3 c 13.3,-32.6 30.8,-64.6 33.9,-79.4 3.1,-14.8 -6.9,-23.5 -29.9,-52.4 z"
     fill="#2331b5"
     id="path122" />
  <path
     d="m 374.799,303.8 c 7.4,-22.9 15.7,-43.6 18.2,-49.6 0.212,-0.527 0.258,-1.105 0.133,-1.659 -0.125,-0.553 -0.416,-1.056 -0.833,-1.441 -21.6,-20.7 -26.7,-27.8 -26.7,-27.8"
     stroke="#3442d9"
     stroke-width="2"
     stroke-miterlimit="10"
     id="path124" />
  <path
     d="m 317.699,178 -13.4,-9.1 c 0,0 8.1,-11.1 12.6,-17.8 l 1.1,-1.7 c 0.043,-0.101 0.106,-0.192 0.186,-0.268 0.08,-0.075 0.174,-0.134 0.277,-0.171 0.103,-0.038 0.213,-0.054 0.323,-0.047 0.11,0.007 0.216,0.036 0.314,0.086 0.184,0.086 0.334,0.232 0.424,0.413 0.091,0.182 0.118,0.388 0.076,0.587 -2.9,17.7 -1.9,28 -1.9,28 z"
     fill="#000000"
     id="path126" />
  <path
     d="m 368.099,87.6001 c -7.1,2.4 -16.5,2.3 -27.7,2 -11.2,-0.3 -22.5,-0.6 -41,12.3999 l 3,4.3 c 17.1,-12.0999 26.3,-11.7999 37.9,-11.4999 11.6,0.3 19.8,0.4 27.4,-1.6 0.1,-1.9 0.3,-3.8 0.4,-5.6 z"
     fill="#3442d9"
     id="path128" />
  <path
     d="m 362.699,190.5 c 0.223,0.001 0.438,-0.08 0.604,-0.227 0.166,-0.148 0.272,-0.352 0.296,-0.573 0.2,-16.1 -5.9,-32.5 -8.5,-38.8 -2.729,-6.489 -4.384,-13.379 -4.9,-20.4 -0.8,-9.1 -2.7,-16.2 -3.9,-19 l 3.4,-26.7999 h -1.8 l -3.4,27.0999 v 0.2 c 1.1,2.4 3.1,9.5 3.9,18.7 0.528,7.18 2.182,14.233 4.9,20.9 2.7,6.2 8.7,22.3 8.5,38 0,0.239 0.095,0.468 0.264,0.636 0.169,0.169 0.398,0.264 0.636,0.264 z"
     fill="#000000"
     id="path130" />
  <path
     d="m 420.499,346.5 c -0.356,-0.528 -0.831,-0.966 -1.387,-1.278 -0.555,-0.312 -1.176,-0.491 -1.813,-0.522 0.6,-3.6 -0.1,-6.6 -4.8,-7.7 -5.426,-1.17 -11.055,-0.999 -16.4,0.5 -9.2,-23.6 -27.4,-85.8 -40.1,-131.2 l -41.2,-8.4 c -0.4,11.3 7,36.2 12.4,57.6 5.4,21.4 17.3,66.2 20.6,82.4 2,9.8 4.9,21.5 4.9,21.5 h 38.2 c 11.2,0 25.6,-4.4 28.4,-6.6 2.8,-2.2 2.2,-4.5 1.2,-6.3 z"
     fill="#2331b5"
     id="path132" />
  <path
     d="m 359.199,336.3 c -11.8,-37.2 -29,-87.2 -39.5,-138"
     stroke="#3442d9"
     stroke-width="2"
     stroke-miterlimit="10"
     id="path134" />
  <path
     d="m 339.599,192.1 c 0.2,-2.9 -3.8,-13.8 -8.6,-21.7 -4.8,-7.9 -7.2,-13.5 -11.7,-10.9 -4.5,2.6 -15,9.4 -15,9.4 0,0 8.1,-11.1 12.6,-17.8 9.7,-14.6 6.3,-34.7 -10.4,-36.3 -13.7,7.6 -15.8,14.1 -28.8,37 -13,22.9 -20.7,47.3 -6.7,57.4 14,10.1 27.5,3.1 52.7,-8 10.9,-4.7 15.8,-6.1 15.9,-9.1 z"
     fill="#2331b5"
     id="path136" />
  <path
     d="m 323.899,199.7 c -2.8,-1.3 -5.3,-5.5 -8.3,-14.1 -5,-14.5 -6.3,-18.9 -3.2,-21.9 l -1.9,1.2 c -0.449,0.271 -0.823,0.652 -1.085,1.106 -0.263,0.455 -0.405,0.969 -0.415,1.494 -0.1,3.8 1.8,9.4 5,18.7 2,5.8 3.8,9.7 5.7,12.1 0.723,1.016 1.776,1.75 2.979,2.079 1.203,0.328 2.483,0.229 3.621,-0.279 -0.821,0.08 -1.649,-0.058 -2.4,-0.4 z"
     fill="#3442d9"
     id="path138" />
  <path
     d="m 330.999,170.4 c -4.7,-7.9 -7.2,-13.5 -11.7,-10.9 -4.5,2.6 -27.5,17.1 -27.5,17.1"
     stroke="#000000"
     stroke-width="2"
     stroke-miterlimit="10"
     stroke-linecap="round"
     id="path140" />
  <path
     d="m 382.699,112.9 c -3.088,-20.7817 -4.26,-41.8036 -3.5,-62.7999 0.023,-0.6704 -0.112,-1.3368 -0.393,-1.9458 -0.281,-0.6091 -0.701,-1.1439 -1.226,-1.5617 -0.525,-0.4179 -1.14,-0.7072 -1.796,-0.8448 -0.657,-0.1376 -1.336,-0.1197 -1.985,0.0523 l -24.9,7"
     stroke="#66bcff"
     stroke-width="4"
     stroke-miterlimit="10"
     stroke-linecap="round"
     id="path142" />
  <path
     d="m 366.699,114.6 c 2.4,4.6 6.7,12.8 7.6,15.5 0.3,4.2 0.1,11.4 0.1,13.6 0.011,0.204 0.084,0.399 0.209,0.56 0.125,0.16 0.297,0.279 0.491,0.34 6.8,1 9.7,1.1 12.5,0.8 2.8,-0.3 6.7,-1.6 9.4,-2.4 0.287,-0.112 0.52,-0.331 0.65,-0.61 0.131,-0.279 0.148,-0.598 0.05,-0.89 -2.5,-8.2 -4.2,-14.1 -4.2,-14.1 -0.5,-10.2 -0.6,-18.3 -0.6,-21 0,-0.265 -0.105,-0.519 -0.293,-0.707 -0.187,-0.188 -0.441,-0.293 -0.707,-0.293 -9.3,-0.6 -12.5,-0.6 -15.9,-0.4 -3.4,0.2 -4.5,2.2 -9.2,7.8 -0.209,0.249 -0.332,0.559 -0.35,0.883 -0.018,0.325 0.07,0.647 0.25,0.917 z"
     fill="#ffffff"
     id="path144" />
  <path
     d="m 396.699,142.2 c 0,0 1.1,0.4 0.3,0.8 0.287,-0.112 0.52,-0.331 0.65,-0.61 0.131,-0.279 0.148,-0.598 0.05,-0.89 -2.5,-8.2 -4.2,-14.1 -4.2,-14.1 -0.5,-10.2 -0.6,-18.3 -0.6,-21 0,-0.265 -0.105,-0.519 -0.293,-0.707 -0.187,-0.188 -0.441,-0.293 -0.707,-0.293 -9.3,-0.6 -12.5,-0.6 -15.9,-0.4 -0.723,0.049 -1.432,0.218 -2.1,0.5 l 8.8,18.6 -0.6,17.1 z"
     fill="#ffe75c"
     id="path146" />
  <path
     d="m 383.199,141.7 c 1.7,6.1 3.2,10.4 7,11.2 3.8,0.8 8.3,-3.1 14.1,-8.9 5.8,-5.8 3.8,-10.7 1.3,-15.3 -2.5,-4.6 -2.9,-10.4 -6,-12.8 -3.837,-2.822 -7.96,-5.235 -12.3,-7.2 -3.5,-1.5 -5.6,-1.5 -10.9,4.5 -5.3,6 -8.4,9.5 -7.5,11.9 0.9,2.4 2.4,5 2.4,5 -2.4,2.4 -2.4,4.4 -1.4,6.9 1,2.5 1.4,4.8 6.5,4.8 z"
     fill="#ff78b9"
     id="path148" />
  <path
     d="m 371.499,129 14,-13.2"
     stroke="#000000"
     stroke-width="2"
     stroke-miterlimit="10"
     stroke-linecap="round"
     id="path150" />
  <path
     d="m 384.299,134.2 c -3.144,1.984 -6.418,3.754 -9.8,5.3 -0.1,1.9 -0.1,3.4 -0.1,4.2 0.011,0.204 0.084,0.399 0.209,0.56 0.126,0.16 0.297,0.279 0.491,0.34 6.8,1 9.7,1.1 12.5,0.8 2.8,-0.3 6.7,-1.6 9.4,-2.4 0.287,-0.112 0.52,-0.331 0.65,-0.61 0.131,-0.279 0.148,-0.598 0.05,-0.89 l -0.6,-2 c -4.463,-1.248 -8.761,-3.027 -12.8,-5.3 z"
     fill="#ffffff"
     id="path152" />
  <path
     d="m 397.099,139.5 c -4.463,-1.248 -8.761,-3.027 -12.8,-5.3 l -2,1.3 -0.2,5.5 c 0.025,0.069 0.065,0.132 0.117,0.183 0.052,0.052 0.114,0.092 0.183,0.117 l 14.3,0.9 c 0,0 1.1,0.4 0.3,0.8 0.299,-0.108 0.548,-0.321 0.7,-0.6 0,-0.1 0.1,-0.3 0.1,-0.4 0.016,-0.173 -0.019,-0.346 -0.1,-0.5 l -0.6,-1.9 z"
     fill="#ffe75c"
     id="path154" />
  <path
     d="m 322.799,162 c 3.146,-3.663 5.465,-7.96 6.8,-12.6 1,-3 2.1,-7.3 2.5,-8.9 0.4,-1.6 2.3,-2.5 4.6,-2 2.3,0.5 3.3,0.9 2.9,5 -0.4,4.1 -1.3,13.8 -1.3,13.8 z"
     fill="#ff78b9"
     id="path156" />
  <path
     d="m 368.799,164.4 c -1.5,-4.1 -2.2,-6.2 -3.5,-7.9 -1.3,-1.7 -2.5,-2 -8.3,-2.3 -2.3,-0.1 -6.7,0 -9.6,0.1 5.7,-1.5 11.8,-2.8 13.1,-3.2 1.3,-0.4 3.9,-0.8 3,-3.3 -0.9,-2.5 -1.7,-3.1 -3.1,-3.1 -3.588,-0.069 -7.174,0.233 -10.7,0.9 -5.145,1.008 -10.196,2.446 -15.1,4.3 -2.9,1.2 -6.6,6.6 -11.8,12.1 2.3,8.1 7.8,20.5 13.4,26.4 7.4,-2.9 11.8,-9.3 13.6,-11.7 9.3,-1.6 12.5,-0.6 17.7,0.1 3.2,0.4 3.5,-1.9 3.7,-3 0.2,-1.1 -1.1,-5.6 -2.4,-9.4 z"
     fill="#ff78b9"
     id="path158" />
  <path
     d="m 292.799,58.3001 c -0.3,4.2 1.1,7.7 3.1,7.9 2,0.2 3,-1.4 3.1,-5.3 0.046,-1.6486 0.247,-3.2891 0.6,-4.9 0.7,-3.5 -0.8,-4.8 -2.5,-4.9 -1.7,-0.1 -4,3.1 -4.3,7.2 z"
     fill="#000000"
     id="path160" />
  <path
     d="m 327.099,8.90013 c 2.075,-0.43096 4.236,-0.08964 6.078,0.95987 1.841,1.0495 3.236,2.735 3.922,4.7401 1.5,4.7 2.8,11.8 -5.2,13.1 -3.4,0.5 -6.9,-1 -12.3,-5.2 -3.9,-3.1 -8.1,-4.2 -17.2,0.5 -4.9,-3.4 -2.5,-12.1 10.8,-7.7 -5.8,-7.49997 -4.1,-12.69997 0.1,-14.19997 4.2,-1.500001 10.5,-0.699998 13.8,7.8 z"
     fill="#2a39d4"
     id="path162" />
  <path
     d="m 327.099,23.3001 c -2.9,-3.6 -5.3,-8.4 -7.3,-12.5 -2,-4.10001 -4,-8.4 -6.2,-9.7 h -0.3 c -0.786,0.27465 -1.503,0.7184 -2.1,1.3 l 0.7,-0.20001 c 1.9,0.2 4,4.6 6.3,9.30001 2.3,4.7 4.5,9.1 7.5,12.9 1.008,1.1927 2.149,2.2663 3.4,3.2 0.922,0.1826 1.868,0.2164 2.8,0.1 h 0.1 c -1.842,-1.2161 -3.493,-2.6989 -4.9,-4.4 z"
     fill="#000000"
     id="path164" />
  <path
     d="m 337.199,24.7002 c -0.429,0.6284 -0.971,1.1711 -1.6,1.6 -0.474,-6.6389 -3.439,-12.8537 -8.3,-17.40003 0.753,-0.18404 1.534,-0.21803 2.3,-0.10001 4.185,4.33974 6.851,9.91804 7.6,15.90004 z"
     fill="#000000"
     id="path166" />
  <path
     d="m 347.399,335.7 c 0.1,0.8 0.3,1.5 0.4,2.2 2,9.8 4.9,21.5 4.9,21.5 h 38.2 c 11.2,0 25.6,-4.4 28.4,-6.6 2.8,-2.2 2.2,-4.5 1.2,-6.3 -0.357,-0.528 -0.831,-0.966 -1.387,-1.278 -0.555,-0.313 -1.176,-0.491 -1.813,-0.522 0.6,-3.6 -0.1,-6.6 -4.8,-7.7 -5.426,-1.171 -11.055,-0.999 -16.4,0.5 -1.4,-3.7 -3.1,-8.3 -4.9,-13.6 -16.8,-0.3 -33.9,-1.7 -43.8,11.8 z"
     fill="#45aaf7"
     id="path168" />
  <path
     d="m 347.399,335.7 c 0.1,0.8 0.3,1.5 0.4,2.2 2,9.8 4.9,21.5 4.9,21.5 h 38.2 c 11.2,0 25.6,-4.4 28.4,-6.6 2.8,-2.2 2.2,-4.5 1.2,-6.3 -0.357,-0.528 -0.831,-0.966 -1.387,-1.278 -0.555,-0.313 -1.176,-0.491 -1.813,-0.522 0.6,-3.6 -0.1,-6.6 -4.8,-7.7 -5.426,-1.171 -11.055,-0.999 -16.4,0.5 -1.4,-3.7 -3.1,-8.3 -4.9,-13.6 -16.8,-0.3 -33.9,-1.7 -43.8,11.8 z"
     fill="#45aaf7"
     id="path170" />
  <path
     d="m 396.099,337.5 -1.3,0.3 h -0.2 l -10.9,2.2 c -0.175,-0.232 -0.279,-0.51 -0.3,-0.8 -0.822,-2.828 -1.259,-5.755 -1.3,-8.7 -0.1,-6.1 -3.3,-6.7 -8.8,-6.6 l 0.3,-0.7 c 0.739,-1.938 2.057,-3.602 3.775,-4.765 1.717,-1.163 3.751,-1.768 5.825,-1.735 h 9.1 c 0.533,0.007 1.057,0.129 1.538,0.358 0.481,0.229 0.907,0.558 1.248,0.967 0.342,0.408 0.592,0.885 0.732,1.398 0.141,0.514 0.169,1.052 0.082,1.577 -1.1,4.7 -1.4,10.5 -0.3,14.8 0.107,0.583 0.274,1.153 0.5,1.7 z"
     fill="#8cd9ff"
     id="path172" />
  <path
     d="m 357.499,343.6 c -1.358,-0.456 -2.795,-0.629 -4.222,-0.508 -1.428,0.12 -2.815,0.531 -4.078,1.208 0.086,0.61 0.219,1.212 0.4,1.8 1.077,-0.674 2.289,-1.104 3.551,-1.259 1.261,-0.156 2.541,-0.033 3.749,0.359 5.6,1.9 9.7,9.2 11.8,14.2 h 1.9 c -2.2,-5.2 -6.6,-13.6 -13.1,-15.8 z"
     fill="#5865f2"
     id="path174" />
  <path
     d="m 420.199,351.9 -0.9,0.9 c -2.8,2.2 -17.2,6.6 -28.4,6.6 h -22.8 V 359 c 26.2,-0.4 44,-11.3 50.1,-11.3 2,0 3.2,3 2,4.2 z"
     fill="#000000"
     id="path176" />
  <path
     d="m 395.099,138.1 c 1.425,1.912 3.479,3.258 5.8,3.8"
     stroke="#000000"
     stroke-width="2"
     stroke-miterlimit="10"
     stroke-linecap="round"
     id="path178" />
  <path
     d="m 351.199,130.4 c -0.995,0.005 -1.956,-0.361 -2.696,-1.027 -0.739,-0.665 -1.204,-1.583 -1.304,-2.573 l -0.8,-9.1 h 1.8 l 5.3,8.7 c 0.224,0.406 0.339,0.863 0.334,1.327 -0.004,0.463 -0.128,0.918 -0.359,1.32 -0.231,0.402 -0.562,0.737 -0.96,0.974 -0.399,0.237 -0.851,0.368 -1.315,0.379 z"
     fill="#ffe75c"
     id="path180" />
  <path
     d="m 306.499,114.8 h 9.8"
     stroke="#000000"
     stroke-width="2"
     stroke-miterlimit="10"
     stroke-linecap="round"
     id="path182" />
  <path
     d="m 362.199,228.4 c -1.2,-4.3 -3,-10.4 -3,-10.4 8.041,-5.243 15.695,-11.058 22.9,-17.4 0,0 -8.3,18.4 -12,35.5 z"
     fill="#000000"
     id="path184" />
  <path
     d="m 384.599,249.3 9.7,-0.4"
     stroke="#000000"
     stroke-width="2"
     stroke-miterlimit="10"
     stroke-linecap="round"
     id="path186" />
  <path
     d="m 396.099,337.5 -1.3,0.3 h -0.2 c -4.345,1.026 -8.62,2.329 -12.8,3.9 h -0.3 c -0.177,-0.009 -0.348,-0.072 -0.491,-0.179 -0.142,-0.106 -0.25,-0.253 -0.309,-0.421 -0.047,-0.104 -0.072,-0.217 -0.072,-0.332 0,-0.114 0.024,-0.228 0.071,-0.332 0.048,-0.104 0.117,-0.197 0.203,-0.272 0.087,-0.076 0.188,-0.131 0.298,-0.164 l 2.2,-0.9 c 3.992,-1.388 8.066,-2.523 12.2,-3.4 0.099,0.617 0.267,1.221 0.5,1.8 z"
     fill="#000000"
     id="path188" />
  <path
     d="m 369.099,165.2 -0.3,-0.8 -0.4,-1 c -8.7,-0.9 -17.8,-1.5 -26.7,-0.6 -0.118,0.013 -0.232,0.05 -0.337,0.107 -0.104,0.057 -0.196,0.135 -0.27,0.228 -0.074,0.092 -0.129,0.199 -0.162,0.313 -0.033,0.114 -0.044,0.234 -0.031,0.352 0.013,0.118 0.05,0.233 0.107,0.337 0.058,0.104 0.135,0.196 0.228,0.27 0.093,0.075 0.199,0.13 0.313,0.163 0.114,0.033 0.234,0.043 0.352,0.03 9,-1 18.3,-0.3 27.2,0.6 z"
     fill="#000000"
     id="path190" />
  <path
     d="m 301.199,53.8002 -5.8,2.8 8.1,3.7 z"
     fill="#ffffff"
     id="path192" />
  <path
     d="m 420.199,351.9 c 0.6,-0.8 -0.1,-1.3 -2,-1.3 -6.1,0 -23.9,8.4 -50.1,8.8 h -15.4 l -1.1,-4.4 c 12,0 25.1,-0.2 37.3,-4.1 12.2,-3.9 20.3,-7.2 28.4,-6.2 0.637,0.031 1.258,0.209 1.813,0.522 0.556,0.312 1.03,0.75 1.387,1.278 0.542,0.811 0.806,1.776 0.752,2.75 -0.054,0.974 -0.423,1.904 -1.052,2.65 z"
     fill="#ffffff"
     id="path194" />
  <path
     d="m 388.899,319.9 h 1.2 c 2.8,0 4.7,0.1 5.3,0.8 0.6,0.7 0.3,1 0.1,2 0.086,-0.577 0.22,-1.145 0.4,-1.7 0.087,-0.622 -0.075,-1.253 -0.448,-1.758 -0.374,-0.505 -0.931,-0.843 -1.552,-0.942 h -5 c -4.6,0 -9.8,0 -12.5,5.9 0.614,-0.016 1.225,0.086 1.8,0.3 2.3,-4.7 6.4,-4.6 10.7,-4.6 z"
     fill="#3442d9"
     id="path196" />
  <path
     d="m 351.199,48.3002 c -1.3,2.1 -3.6,4.5 -8.7,5.5 7,-0.8 10,3.1 10,3.1"
     stroke="#000000"
     stroke-width="2"
     stroke-linecap="round"
     stroke-linejoin="round"
     id="path198" />
  <path
     d="m 220.9,359.4 h -66.5 v -14 c -0.011,-3.618 1.388,-7.097 3.9,-9.7 l 6.6,-6.4 c 0.846,-0.797 1.521,-1.758 1.985,-2.823 0.465,-1.066 0.708,-2.215 0.715,-3.377 v -16 c 0.008,-3.204 1.099,-6.311 3.096,-8.816 1.997,-2.506 4.783,-4.262 7.904,-4.984 10.7,-2.7 21.8,-3.2 30.9,-1.4 3.221,0.667 6.113,2.423 8.189,4.973 2.077,2.551 3.211,5.738 3.211,9.027 z"
     fill="#45aaf7"
     id="path200" />
  <path
     d="m 171.5,332.6 h 0.4 c 0.157,0.009 0.313,-0.023 0.454,-0.094 0.14,-0.07 0.259,-0.175 0.346,-0.306 3,-5.8 3,-14.8 3,-24.4 0,-9.6 0.9,-13.2 7.3,-15.6 l -3.4,0.7 c -0.877,0.198 -1.699,0.588 -2.408,1.141 -0.708,0.553 -1.286,1.256 -1.692,2.059 -1.4,2.8 -1.6,6.5 -1.6,11.7 0,9.4 0,18.2 -2.8,23.6 -0.067,0.101 -0.111,0.217 -0.128,0.338 -0.016,0.121 -0.004,0.244 0.034,0.36 0.039,0.116 0.103,0.221 0.189,0.308 0.086,0.087 0.19,0.154 0.305,0.194 z"
     fill="#bae8ff"
     id="path202" />
  <path
     d="m 220.901,305.9 c -0.006,-3.303 -1.154,-6.501 -3.25,-9.053 -2.097,-2.552 -5.012,-4.3 -8.25,-4.947 -5.348,-0.92 -10.784,-1.222 -16.201,-0.9 -12.8,0.9 -10.899,9 -10.899,20.8 v 10.1 c 0.005,3.375 -0.892,6.69 -2.601,9.6 -1.9,3.1 -2.399,6.9 -2.399,14.3 v 13.6 h 43.6 z"
     fill="#3f99f2"
     id="path204" />
  <path
     d="m 204.9,343.3 c -0.6,-17.4 -8.5,-32.6 -16.5,-47.1 -0.204,-0.288 -0.324,-0.627 -0.347,-0.979 -0.022,-0.352 0.054,-0.704 0.22,-1.016 0.166,-0.311 0.416,-0.57 0.721,-0.748 0.305,-0.177 0.654,-0.266 1.006,-0.257 h 2 c 0.42,0.023 0.828,0.144 1.192,0.352 0.365,0.208 0.676,0.499 0.908,0.848 8.2,15.1 16.8,30.8 17.4,48.9 0.3,9.1 -6.6,16.1 -15.8,16.1 h -6.6 c 9.2,0 16.1,-7 15.8,-16.1 z"
     fill="#3543de"
     id="path206" />
  <path
     d="m 223.7,343.3 c -0.6,-17.4 -8.6,-32.6 -16.5,-47.1 -0.204,-0.288 -0.324,-0.627 -0.347,-0.979 -0.023,-0.352 0.054,-0.704 0.22,-1.016 0.166,-0.311 0.415,-0.57 0.721,-0.748 0.305,-0.177 0.654,-0.266 1.007,-0.257 h 2 c 0.407,0.014 0.805,0.131 1.155,0.341 0.35,0.21 0.641,0.506 0.845,0.859 8.3,15.1 16.8,30.8 17.5,48.9 0.097,2.115 -0.244,4.227 -0.999,6.204 -0.756,1.977 -1.911,3.777 -3.394,5.288 -1.483,1.511 -3.261,2.7 -5.224,3.493 -1.962,0.793 -4.067,1.172 -6.184,1.115 h -6.6 c 2.117,0.057 4.222,-0.322 6.184,-1.115 1.963,-0.793 3.741,-1.982 5.224,-3.493 1.483,-1.511 2.638,-3.311 3.394,-5.288 0.756,-1.977 1.095,-4.089 0.998,-6.204 z"
     fill="#3543de"
     id="path208" />
  <path
     d="m 207.4,316.3 20.3,3.5 c 1.6,4.2 2.4,7 2.6,9.7 0.2,2.7 -2.4,4.2 -6.4,5.8 -2.871,1.199 -5.511,2.892 -7.8,5 -5.8,5.1 -10.7,8.2 -19.2,8.2 -1.7,0 -2.9,0.1 -3.9,-1 -1.062,-1.196 -1.69,-2.716 -1.78,-4.313 -0.091,-1.597 0.36,-3.178 1.28,-4.487 1.028,-1.395 2.278,-2.611 3.7,-3.6 3.022,-1.96 5.575,-4.563 7.476,-7.622 1.902,-3.059 3.105,-6.5 3.524,-10.078 0.1,-0.5 0.1,-0.8 0.2,-1.1 z"
     fill="#de3a93"
     id="path210" />
  <path
     d="m 223.901,335.3 c 1.686,-0.631 3.269,-1.507 4.699,-2.6 1.9,-1.8 1.1,-3.5 -3,-3.4 -4.1,0.1 -8.4,3.3 -17,8.6 -8.6,5.3 -21.399,10.6 -11.699,10.6 9.7,0 13.399,-3.1 19.199,-8.2 2.289,-2.108 4.929,-3.801 7.801,-5 z"
     fill="#000000"
     id="path212" />
  <path
     d="m 205.2,310.2 c -1.5,0.3 -1.3,2 -0.5,3.7 -1.6,3 -0.599,4.2 2.201,5.4 5.657,1.924 11.633,2.738 17.6,2.4 6.1,-0.6 5.699,-2.6 5.099,-4.6 2.1,-1.8 1.801,-3.9 -0.299,-4.8 -2.1,-0.9 -13.401,-4.4 -24.101,-2.1 z"
     fill="#66bcff"
     id="path214" />
  <path
     d="M 250.301,205.8 H 224.1 v 14.29 h 26.201 z"
     fill="#ffffff"
     id="path216" />
  <path
     d="m 303.6,206.1 c 0.501,2.032 0.533,4.152 0.093,6.198 -0.439,2.047 -1.339,3.966 -2.63,5.614 -1.291,1.647 -2.94,2.98 -4.822,3.896 -1.882,0.916 -3.947,1.392 -6.041,1.392 h -28.6 l -13.4,7.5 v -0.4 c -6.1,0 -9.599,-2 -6.899,-24.4 -1.2,-6.3 -6.8,-31.1 -9.9,-49.6 -2.8,-16.9 3.5,-23.1 20.9,-32.9 7.4,-22 26.599,-20.7 30.299,-7.5 3.7,13.2 15.9,69.3 21,90.2 z"
     fill="#66bcff"
     id="path218" />
  <path
     d="m 249.901,237.8 -4.6,0.8 c -0.225,0.044 -0.438,0.137 -0.625,0.271 -0.186,0.133 -0.341,0.306 -0.455,0.505 -0.114,0.199 -0.184,0.42 -0.204,0.649 -0.021,0.228 0.007,0.459 0.084,0.675 l 1,2.5 c -13.9,0.8 -26,2 -30.8,6.2 -4.8,4.2 -4.8,10.6 -7,29.7 -2.2,19.1 -5.8,30.5 0,33.1 5.888,2.528 12.329,3.493 18.7,2.8 6.4,-0.6 7,-3.9 8.3,-13.8 1.3,-9.9 4.399,-31.9 4.399,-31.9 h 50.5 c 12.5,0 19.901,-8.2 21.601,-15.2 1.2,-5 -0.4,-16.8 -3.3,-30.8 h -45.9 l -13.401,7.5 1,4.3 z"
     fill="#3442d9"
     id="path220" />
  <path
     d="m 292,223.5 c 5,25 6,43.8 -13,52.4"
     stroke="#2330bf"
     stroke-width="2"
     stroke-miterlimit="10"
     id="path222" />
  <path
     d="m 252.7,210.9 c 0,0 2.1,12.3 5,26.9 3.3,16.8 2.4,16.2 -20.5,17.7 -20.1,1.3 -18.3,0.3 -22.5,23.2 -1.6,9 -4.4,25.3 -3.6,34.3 0,0 -0.9,5.3 -0.7,6.4"
     stroke="#2467d4"
     stroke-width="2"
     stroke-linecap="round"
     stroke-linejoin="round"
     id="path224" />
  <path
     d="m 238.7,269.3 c -11.1,-1.7 -16.5,-11.7 -16.5,-11.7"
     stroke="#000000"
     stroke-width="2"
     stroke-linecap="round"
     stroke-linejoin="round"
     id="path226" />
  <path
     d="m 238.7,269.3 c -2.271,-1.338 -4.255,-3.115 -5.834,-5.227 -1.579,-2.111 -2.723,-4.516 -3.366,-7.073"
     stroke="#000000"
     stroke-width="2"
     stroke-linecap="round"
     stroke-linejoin="round"
     id="path228" />
  <path
     d="m 303.6,206.1 c -2.6,-10.8 -7.2,-30.8 -11.5,-49.5 l -22.4,-1.7 -17.299,12.2 -10,13.4 -5.1,6.9 c 1.8,8.6 3.299,15.6 3.899,18.6 -2.7,22.4 0.8,24.4 6.9,24.4 l 17.701,-7.5 41,-2.9 c -1,-4.5 -2.101,-9.2 -3.201,-13.9 z"
     fill="#eb459f"
     id="path230" />
  <path
     d="m 257.77,194.842 c 1.261,-7.46 0.607,-13.792 -1.463,-14.142 -2.069,-0.35 -4.769,5.414 -6.031,12.875 -1.262,7.46 -0.607,13.791 1.462,14.141 2.069,0.35 4.77,-5.414 6.032,-12.874 z"
     fill="#000000"
     id="path232" />
  <path
     d="m 244.7,176.3 c 1,-1.8 2.101,-3.6 3.201,-5.2 11.3,-16.3 21.899,-20.7 32.099,-20.7 h 12.7 c 0.19,0.005 0.375,0.055 0.542,0.145 0.166,0.09 0.309,0.219 0.416,0.375 0.107,0.156 0.176,0.335 0.201,0.523 0.025,0.188 0.005,0.379 -0.058,0.557 l -1.701,4.6 c -19.5,0 -26.4,-0.6 -42.6,16.4 l -7.099,7.5 z"
     fill="#d11583"
     id="path234" />
  <path
     d="M 306.801,220 H 273.7 c -7.4,0 -16.5,-0.4 -25.6,10.4 l 1.1,4.7 c 5.3,-5.1 10.2,-7.3 20.8,-7.3 h 38.401 z"
     fill="#000000"
     id="path236" />
  <path
     d="m 249.5,173.6 c -6.7,1.2 -12,4.7 -15,10.9 -0.852,1.72 -2.082,3.224 -3.6,4.4 l -18,13.1 c -2.023,1.436 -3.433,3.579 -3.952,6.005 -0.518,2.426 -0.107,4.958 1.152,7.095 0.878,1.5 2.135,2.742 3.644,3.602 1.51,0.86 3.219,1.308 4.956,1.298 h 7.5 c 15.6,-8.7 22.8,-14.6 26.5,-18 3.7,-3.4 7.8,-9.5 7.1,-16.5 -0.7,-7 -2.7,-13.3 -10.3,-11.9 z"
     fill="#ffffff"
     id="path238" />
  <path
     d="m 255.1,121.9 c -2.4,-4 -5.6,-9.3 -6.8,-11.8 -1.2,-2.5 -4.1,-1.9 0,9.3 -10,-3.8 -12.1,-2.4 -12.6,-1 -0.5,1.4 1.7,2.1 5.9,4.5 4.2,2.4 8.7,5.3 8.7,5.3 z"
     fill="#66bcff"
     id="path240" />
  <path
     d="m 265.5,122.2 c 1.7,-2.1 2.301,-4.4 1.301,-5.2 -1,-0.8 -2.101,-0.4 -3.601,1.6 -0.647,0.813 -1.348,1.582 -2.1,2.3 -1.7,1.6 -1.3,2.8 -0.5,3.5 0.8,0.7 3.2,-0.1 4.9,-2.2 z"
     fill="#000000"
     id="path242" />
  <path
     d="m 282.5,116 c 0,0 -11.9,-5.4 -17,-8.7 -5.1,-3.3 -7.7,-8.2 -5.4,-9.5 2.3,-1.3 6.701,1.8 9.801,5.8 -0.1,-7.1 1.1,-8.5999 3,-8.6999 1.9,-0.1 2.099,2.6999 2.199,6.6999 0.1,4 0.801,5.6 3.801,8.3 1.796,1.617 3.052,3.746 3.599,6.1 z"
     fill="#3442d9"
     id="path244" />
  <path
     d="m 238.801,149.2 c -2.8,0 -5.2,-2.4 -3,-6.6 2.2,-4.2 9.399,-8.4 12.899,-10 3.5,-1.6 5.101,0 5.201,1.2 0.1,1.2 -0.401,3 -2.901,6.2 -2.5,3.2 -7.099,9.2 -12.199,9.2 z"
     fill="#ffffff"
     id="path246" />
  <path
     d="m 241,148.9 -1.699,0.3 -2.4,-8.2 1.4,-1.5 z"
     fill="#8cd9ff"
     id="path248" />
  <path
     d="m 247.2,144.5 -1.399,1.4 -2.801,-10.1 1.5,-1 z"
     fill="#8cd9ff"
     id="path250" />
  <path
     d="m 252.801,137.5 -1.301,1.8 -2,-7 1.7,-0.3 z"
     fill="#8cd9ff"
     id="path252" />
  <path
     d="m 250.6,131.1 c 1.851,0.884 3.755,1.653 5.701,2.3"
     stroke="#000000"
     stroke-width="2"
     stroke-linecap="round"
     stroke-linejoin="round"
     id="path254" />
  <path
     d="m 248.1,242.5 11,13.4"
     stroke="#000000"
     stroke-width="2"
     stroke-linecap="round"
     stroke-linejoin="round"
     id="path256" />
  <path
     d="m 256.7,238.5 h -3.899 l -1.201,-5.5 -1.1,-5.1 c 1.013,-0.993 2.082,-1.928 3.2,-2.8 l 1.3,5.6 z"
     fill="#3442d9"
     id="path258" />
  <path
     d="m 274,233.2 h -3.9 l -1.199,-5.4 -1.6,-7.6 h 3.899 l 1.601,7.7 z"
     fill="#3442d9"
     id="path260" />
  <path
     d="M 305.901,233 H 302 l -1.199,-5.2 -1.601,-7.8 h 3.9 l 1.6,7.8 z"
     fill="#3442d9"
     id="path262" />
  <path
     d="m 295.2,169.8 c -1.914,-1.518 -4.259,-2.393 -6.699,-2.5 -5.2,0 -8.1,5.1 -9.1,10 -0.161,0.786 -0.586,1.492 -1.205,2.002 -0.619,0.51 -1.394,0.791 -2.195,0.798 h -0.7 c -0.451,-0.083 -0.881,-0.256 -1.263,-0.51 -0.383,-0.253 -0.71,-0.581 -0.962,-0.964 -0.252,-0.383 -0.425,-0.813 -0.506,-1.264 -0.082,-0.452 -0.071,-0.915 0.031,-1.362 1.9,-9.5 8.1,-15.6 15.9,-15.6 1.29,0.016 2.537,0.47 3.537,1.288 0.999,0.817 1.691,1.95 1.963,3.212 z"
     fill="#ffffff"
     id="path264" />
  <path
     d="m 303.6,206.1 c 0.221,0.894 0.257,1.824 0.107,2.732 -0.15,0.909 -0.482,1.778 -0.978,2.554 -0.496,0.776 -1.144,1.443 -1.905,1.961 -0.761,0.519 -1.62,0.877 -2.523,1.053 l -2.5,0.2 c -5.7,0 -11.601,-3.4 -16.201,-9.3 -0.275,-0.368 -0.476,-0.786 -0.59,-1.231 -0.114,-0.446 -0.139,-0.909 -0.074,-1.364 0.065,-0.455 0.219,-0.893 0.453,-1.288 0.234,-0.396 0.544,-0.741 0.912,-1.017 0.362,-0.289 0.78,-0.501 1.227,-0.623 0.447,-0.121 0.915,-0.15 1.374,-0.085 0.459,0.066 0.899,0.224 1.295,0.467 0.395,0.242 0.737,0.562 1.003,0.941 3.2,4.1 7.101,6.6 10.601,6.6 3.5,0 5.6,-2 7.1,-4.6 0.2,1.1 0.499,2.1 0.699,3 z"
     fill="#2331b5"
     id="path266" />
  <path
     d="m 296.9,177.5 c -0.706,0.004 -1.393,0.227 -1.967,0.639 -0.573,0.412 -1.004,0.993 -1.233,1.661 l -4.2,11.3 c -0.367,1.061 -0.359,2.216 0.023,3.272 0.383,1.056 1.116,1.948 2.077,2.528 0.435,0.267 0.925,0.434 1.432,0.486 0.508,0.053 1.021,-0.01 1.502,-0.183 0.48,-0.173 0.915,-0.452 1.273,-0.816 0.358,-0.364 0.629,-0.804 0.793,-1.287 l 2.701,-7.3 c -0.7,-3.3 -1.501,-6.7 -2.401,-10.3 z"
     fill="#5865f2"
     id="path268" />
  <path
     d="m 291.6,196.9 c -0.961,-0.58 -1.694,-1.472 -2.077,-2.528 -0.382,-1.056 -0.39,-2.211 -0.023,-3.272 l 1.2,-3.1 c 0.201,-0.541 0.517,-1.032 0.925,-1.44 0.409,-0.407 0.901,-0.721 1.442,-0.921 0.542,-0.199 1.12,-0.279 1.696,-0.234 0.575,0.045 1.134,0.214 1.637,0.495 0.823,0.481 1.453,1.232 1.781,2.127 0.328,0.894 0.335,1.874 0.019,2.773 l -1.6,4.3 c -0.164,0.483 -0.435,0.923 -0.793,1.287 -0.358,0.364 -0.793,0.643 -1.273,0.816 -0.481,0.173 -0.994,0.236 -1.502,0.183 -0.507,-0.052 -0.997,-0.218 -1.432,-0.486 z"
     fill="#ffe75c"
     id="path270" />
  <path
     d="m 238.6,212.9 c -3.202,2.226 -6.8,3.821 -10.6,4.7"
     stroke="#a3d7ff"
     stroke-width="2"
     stroke-linecap="round"
     stroke-linejoin="round"
     id="path272" />
  <path
     d="m 277.301,359.4 h -17.5 c -10.7,0 -20.601,-8.6 -22.101,-19.2 -1.5,-10.6 5.301,-16.2 16.801,-18.7 l 2,-0.5 c 1.619,-0.339 3.048,-1.283 3.996,-2.639 0.948,-1.357 1.342,-3.024 1.104,-4.661 -0.195,-1.593 -0.924,-3.074 -2.068,-4.2 -1.144,-1.126 -2.636,-1.831 -4.232,-2 l -2.9,-0.3 c -12.4,-1.3 -20.6,-8.6 -22.1,-19.2 -1.5,-10.6 5.9,-18.7 16.3,-18.7 h 17.5 c 10.7,0 20.599,8.6 22.099,19.2 l 7.401,52.2 c 1.4,10.3 -5.9,18.7 -16.3,18.7 z"
     fill="#adb4ff"
     id="path274" />
  <path
     d="m 297.6,359.4 h -17.5 c -10.7,0 -20.6,-8.6 -22.1,-19.2 -0.609,-3.901 0.235,-7.889 2.374,-11.208 2.139,-3.319 5.422,-5.736 9.226,-6.792 1.404,-0.377 2.62,-1.259 3.413,-2.477 0.794,-1.218 1.11,-2.686 0.887,-4.123 l -0.5,-3.8 c -0.191,-1.209 -0.742,-2.332 -1.58,-3.224 -0.838,-0.891 -1.925,-1.51 -3.12,-1.776 -9.1,-1.9 -16.8,-9.6 -18.1,-18.8 -1.3,-9.2 5.9,-18.7 16.3,-18.7 h 17.5 c 10.7,0 20.6,8.6 22.1,19.2 l 7.4,52.2 c 1.4,10.3 -5.9,18.7 -16.3,18.7 z"
     fill="#ffffff"
     id="path276" />
  <path
     d="m 293.2,286.9 c 0.073,0.5 0.036,1.009 -0.107,1.493 -0.144,0.485 -0.39,0.932 -0.723,1.312 -0.332,0.38 -0.743,0.684 -1.204,0.89 -0.461,0.206 -0.961,0.31 -1.466,0.305 h -18.399 c -1.112,-0.031 -2.178,-0.446 -3.017,-1.176 -0.839,-0.73 -1.399,-1.728 -1.584,-2.824 v -0.6 c -0.091,-0.489 -0.07,-0.993 0.061,-1.473 0.131,-0.48 0.369,-0.924 0.696,-1.299 0.327,-0.375 0.735,-0.672 1.193,-0.867 0.457,-0.195 0.953,-0.284 1.45,-0.261 h 18.5 c 1.097,0.026 2.152,0.428 2.989,1.137 0.837,0.71 1.406,1.685 1.611,2.763 z"
     fill="#66bcff"
     id="path278" />
  <path
     d="m 285.2,294.3 c 0.089,0.494 0.067,1.002 -0.063,1.486 -0.131,0.485 -0.368,0.934 -0.693,1.317 -0.325,0.382 -0.73,0.688 -1.187,0.895 -0.457,0.207 -0.955,0.31 -1.456,0.302 h -0.5 c -1.112,-0.031 -2.178,-0.446 -3.017,-1.176 -0.839,-0.729 -1.399,-1.728 -1.584,-2.824 l -2.199,-15.4 c -0.075,-0.495 -0.038,-1 0.106,-1.48 0.143,-0.479 0.391,-0.921 0.726,-1.294 0.334,-0.372 0.746,-0.666 1.208,-0.861 0.461,-0.195 0.959,-0.285 1.46,-0.265 h 0.5 c 1.097,0.026 2.152,0.428 2.989,1.137 0.837,0.71 1.405,1.685 1.61,2.763 z"
     fill="#66bcff"
     id="path280" />
  <path
     d="m 287.501,317.5 c 0.027,0.205 0.013,0.413 -0.044,0.612 -0.056,0.199 -0.153,0.384 -0.285,0.544 -0.131,0.16 -0.294,0.291 -0.479,0.384 -0.184,0.094 -0.386,0.148 -0.593,0.16 h -0.299 c -0.46,-0.036 -0.895,-0.221 -1.238,-0.529 -0.343,-0.307 -0.576,-0.718 -0.662,-1.171 l -0.9,-6.4 c -0.031,-0.209 -0.015,-0.421 0.048,-0.623 0.063,-0.201 0.171,-0.385 0.315,-0.539 0.144,-0.154 0.321,-0.273 0.518,-0.349 0.197,-0.076 0.408,-0.106 0.619,-0.089 h 0.199 c 0.456,-0.006 0.899,0.153 1.248,0.447 0.349,0.293 0.581,0.703 0.652,1.153 z"
     fill="#adb4ff"
     id="path282" />
  <path
     d="m 287.1,337.7 c -1.097,-0.026 -2.151,-0.428 -2.988,-1.137 -0.837,-0.71 -1.406,-1.685 -1.611,-2.763 v -0.6 c -0.092,-0.489 -0.071,-0.993 0.06,-1.473 0.131,-0.48 0.369,-0.924 0.696,-1.299 0.327,-0.375 0.735,-0.672 1.193,-0.867 0.457,-0.195 0.953,-0.284 1.451,-0.261 h 0.5 c 1.083,0.021 2.127,0.409 2.962,1.099 0.835,0.689 1.412,1.642 1.638,2.701 v 0.7 c 0.074,0.495 0.037,1 -0.107,1.48 -0.143,0.479 -0.391,0.921 -0.726,1.294 -0.334,0.372 -0.746,0.666 -1.208,0.861 -0.461,0.195 -0.959,0.285 -1.459,0.265 z"
     fill="#66bcff"
     id="path284" />
  <path
     d="m 289.7,352.6 h -0.5 c -1.102,-0.007 -2.167,-0.402 -3.008,-1.115 -0.84,-0.713 -1.404,-1.699 -1.592,-2.785 v -0.9 c -0.042,-0.48 0.017,-0.963 0.175,-1.418 0.158,-0.454 0.411,-0.871 0.742,-1.22 0.331,-0.35 0.732,-0.626 1.178,-0.809 0.445,-0.183 0.924,-0.269 1.405,-0.253 h 0.5 c 1.084,0.021 2.127,0.409 2.963,1.098 0.835,0.69 1.412,1.642 1.637,2.702 v 0.7 c 0.091,0.503 0.067,1.019 -0.069,1.511 -0.136,0.492 -0.382,0.947 -0.718,1.331 -0.336,0.385 -0.754,0.688 -1.224,0.889 -0.47,0.2 -0.978,0.292 -1.489,0.269 z"
     fill="#ff78b9"
     id="path286" />
  <path
     d="m 287.6,337.7 h -0.5 c -1.097,-0.026 -2.151,-0.428 -2.988,-1.137 -0.837,-0.71 -1.406,-1.685 -1.611,-2.763 v -0.6 c -0.092,-0.489 -0.071,-0.993 0.06,-1.473 0.131,-0.48 0.369,-0.924 0.696,-1.299 0.327,-0.375 0.735,-0.672 1.193,-0.867 0.457,-0.195 0.953,-0.284 1.451,-0.261 h 0.5 c 1.083,0.021 2.127,0.409 2.962,1.099 0.835,0.689 1.412,1.642 1.638,2.701 v 0.7 c 0.072,0.487 0.038,0.983 -0.1,1.455 -0.138,0.472 -0.377,0.909 -0.701,1.279 -0.323,0.371 -0.723,0.667 -1.172,0.869 -0.448,0.201 -0.936,0.302 -1.428,0.297 z"
     fill="#5865f2"
     id="path288" />
  <path
     d="m 297.1,345.1 c -1.097,-0.026 -2.151,-0.428 -2.988,-1.137 -0.837,-0.71 -1.406,-1.685 -1.611,-2.763 v -0.6 c -0.092,-0.489 -0.071,-0.993 0.06,-1.473 0.131,-0.48 0.369,-0.924 0.696,-1.299 0.327,-0.375 0.735,-0.672 1.193,-0.867 0.457,-0.195 0.953,-0.284 1.451,-0.261 h 0.5 c 1.083,0.021 2.127,0.409 2.962,1.099 0.835,0.689 1.412,1.642 1.638,2.701 v 0.7 c 0.091,0.489 0.07,0.993 -0.061,1.473 -0.131,0.48 -0.369,0.924 -0.696,1.299 -0.327,0.375 -0.735,0.672 -1.193,0.867 -0.457,0.195 -0.953,0.285 -1.451,0.261 z"
     fill="#66bcff"
     id="path290" />
  <path
     d="m 297.6,345.1 h -0.5 c -1.097,-0.026 -2.151,-0.428 -2.988,-1.137 -0.837,-0.71 -1.406,-1.685 -1.611,-2.763 v -0.6 c -0.092,-0.489 -0.071,-0.993 0.06,-1.473 0.131,-0.48 0.369,-0.924 0.696,-1.299 0.327,-0.375 0.735,-0.672 1.193,-0.867 0.457,-0.195 0.953,-0.284 1.451,-0.261 h 0.5 c 1.083,0.021 2.127,0.409 2.962,1.099 0.835,0.689 1.412,1.642 1.638,2.701 v 0.7 c 0.091,0.489 0.07,0.993 -0.061,1.473 -0.131,0.48 -0.369,0.924 -0.696,1.299 -0.327,0.375 -0.735,0.672 -1.193,0.867 -0.457,0.195 -0.953,0.285 -1.451,0.261 z"
     fill="#5865f2"
     id="path292" />
  <path
     d="m 279.7,345.3 h -0.6 c -1.099,-0.035 -2.152,-0.454 -2.974,-1.185 -0.822,-0.731 -1.362,-1.727 -1.526,-2.815 v -0.9 c -0.058,-0.474 -0.012,-0.955 0.134,-1.41 0.146,-0.455 0.389,-0.873 0.712,-1.225 0.323,-0.352 0.719,-0.629 1.16,-0.813 0.441,-0.184 0.917,-0.27 1.394,-0.252 h 0.6 c 1.08,0.049 2.112,0.46 2.928,1.168 0.817,0.708 1.371,1.67 1.572,2.732 v 0.6 c 0.106,0.501 0.097,1.02 -0.026,1.517 -0.123,0.497 -0.357,0.96 -0.683,1.354 -0.327,0.394 -0.739,0.71 -1.205,0.923 -0.466,0.212 -0.974,0.317 -1.486,0.306 z"
     fill="#ff78b9"
     id="path294" />
  <path
     d="m 117.4,339.4 -9.7,-5.4 c 7.614,-12.539 15.997,-24.596 25.1,-36.1 -17.9,6.5 -36.7,14.6 -57.5,14.6 H 40.5 c -2.1,-4.3 -2.7,-8.7 -2.7,-15.3 l 42.5,-15.5 16.1,3.3 0.5,4.6 c 15.4,-3.9 31.3,-8.4 42.8,-11.1 14.5,-3.4 19.4,3.9 11,16.1 -16.2,23.6 -33.3,44.8 -33.3,44.8 z"
     fill="#29cc7a"
     id="path296" />
  <path
     d="m 50.1,293.2 c 0,8.5 0,14.5 4.1,17.9 0.9863,0.895 2.2685,1.393 3.6,1.4 H 62 C 51.8,310.8 51.8,305.3 51.9,293.2 v -0.8 c 0,-0.1 -0.1,-0.2 -0.1,-0.3 l -1.7,0.6 z"
     fill="#15ad75"
     id="path298" />
  <path
     d="M 117.4,334.9 C 133,314.3 143,300 147.2,293.3 c 4.2,-6.7 5.6,-10.9 -15.6,-3.7 -21.2,7.2 -37.3001,13.7 -42.0001,11.9 -4.7,-1.8 -2.9999,-6.6 -2.6999,-15.1"
     stroke="#15ad75"
     stroke-width="2"
     stroke-linecap="round"
     stroke-linejoin="round"
     id="path300" />
  <path
     d="m 55,237.8 c -7.1693,-11.036 -13.0732,-22.843 -17.6,-35.2 -0.6402,-2.055 -0.7837,-4.232 -0.4186,-6.353 0.3651,-2.121 1.2282,-4.125 2.5186,-5.847 7.3,-8.8 16.8999,-13.5 29.6999,-15.7 1.3935,-0.154 2.7921,0.241 3.9,1.1 15.2,13.3 19.7001,28.3 22.3001,42.9 0.0657,0.843 -0.0834,1.688 -0.4331,2.458 -0.3498,0.769 -0.8888,1.437 -1.5669,1.942 -7.5,4.6 -11.5,6 -11.5,6 l 1.5,11.1 z"
     fill="#ffe75c"
     id="path302" />
  <path
     d="m 69.5,200.5 c 7.4935,0.696 14.9396,1.831 22.3,3.4 l 4.1,1.1 c 0.1512,0.042 0.2889,0.123 0.3993,0.234 0.1104,0.111 0.1897,0.25 0.2301,0.401 0.0404,0.152 0.0406,0.312 4e-4,0.463 -0.0403,0.152 -0.1195,0.29 -0.2298,0.402 l -0.9,0.8 1.6,6.2 c 0.5174,1.896 0.385,3.912 -0.3762,5.724 -0.7612,1.812 -2.1073,3.318 -3.8238,4.276 l -3.7,2.1 z"
     fill="#ffe75c"
     id="path304" />
  <path
     d="m 72.7054,207.868 c 1.9024,-1.327 1.5234,-5.157 -0.8465,-8.554 -2.3699,-3.398 -5.8333,-5.076 -7.7357,-3.749 -1.9024,1.328 -1.5234,5.157 0.8465,8.555 2.3699,3.397 5.8333,5.075 7.7357,3.748 z"
     fill="#ff78b9"
     id="path306" />
  <path
     d="m 84.5,194 c -1.2,-1.1 -2.5,-1.4 -3,-0.9 -0.5,0.5 -0.2,1.3 0.9,2.1 l 1.2999,1.3 c 0.9,1 1.6,0.8 2,0.3 0.4,-0.5 1e-4,-1.8 -1.1999,-2.8 z"
     fill="#000000"
     id="path308" />
  <path
     d="m 44.8001,185.1 c -1.6,-16.1 -1e-4,-21.5 3.3999,-26.2 3.4,-4.7 5.4,-3.3 4.8,2.9 -0.3639,4.861 -0.3305,9.744 0.1,14.6 2.9578,-7.576 7.2603,-14.554 12.7001,-20.6 1.6115,-1.954 3.7706,-3.382 6.1999,-4.1 2.4,-0.6 3.7,0.8 3,3.1 -1.2,3.9 -4.1,10.1 -11.9,21.2 l 0.8,4.4 z"
     fill="#ffe75c"
     id="path310" />
  <path
     d="m 91.5,247.3 c 8.5,2.9 2.5,29.5 2.5,29.5 l 1.1999,0.9 c 0.9817,0.751 1.6762,1.816 1.9674,3.017 0.2912,1.201 0.1616,2.466 -0.3673,3.583 l -0.4,0.7 c -5.9,0 -9.8001,0.5 -17.8001,6.2 -8,5.7 -13.0999,6 -21.2999,6 H 37.8 v -6.6 c -7.3,-2.9 -7.9001,-6.4 -5.1001,-10.9 1.5,-2.6 3.9001,-6.2 5.7001,-8.9 0.6909,-1.032 1.1703,-2.191 1.4106,-3.41 0.2403,-1.219 0.2367,-2.473 -0.0106,-3.69 C 38.2,255.1 39.5,250 39.5,250 l 21.1999,-5.7 26.9,-1.1 z"
     fill="#2331b5"
     id="path312" />
  <path
     d="m 90.8732,271.794 c 2.563,-0.678 3.4627,-5.685 2.0096,-11.185 -1.4531,-5.5 -4.7088,-9.409 -7.2718,-8.732 -2.563,0.677 -3.4628,5.685 -2.0097,11.184 1.4531,5.5 4.7089,9.41 7.2719,8.733 z"
     fill="#000000"
     id="path314" />
  <path
     d="m 103.9,334.6 c 2.4,-2.5 7.6,-6.7 7.6,-6.7 3.3,0 8.3,0.6 10.5,9.7 l 2.7,10.7 c 10.3,1.9 10.4,4.8 9,8.6 v 1.7 c 0,0.212 -0.084,0.416 -0.234,0.566 -0.15,0.15 -0.354,0.234 -0.566,0.234 h -17.2 z"
     fill="#ffffff"
     id="path316" />
  <path
     d="m 132.9,359.4 c 0.212,0 0.416,-0.084 0.566,-0.234 0.15,-0.15 0.234,-0.354 0.234,-0.566 v -1.7 c -6.8,0 -11.8,0.7 -14.3,-3.7 -2.683,-5.324 -5.053,-10.8 -7.1,-16.4 -0.9,-2.6 -2.8,-5.7 -5.7,-4.8 l -2.7,2.6 11.8,24.8 z"
     fill="#ff78b9"
     id="path318" />
  <path
     d="m 125.6,359.4 c -1.809,0.028 -3.595,-0.408 -5.188,-1.266 -1.593,-0.857 -2.939,-2.108 -3.912,-3.634 -3.7,-5.6 -6,-12.3 -7.4,-16.4 -1.4,-4.1 -5.9,-5.7 -6.3,-0.5 -0.4,5.2 2.3,9.2 6.5,19.6 0.232,0.658 0.667,1.225 1.242,1.621 0.575,0.395 1.26,0.598 1.958,0.579 z"
     fill="#000000"
     id="path320" />
  <path
     d="m 91.5001,247.3 15.7999,5.4 c 1.6,-22.1 8.3,-28.4 16.1,-46 5.6,-12.5 8.2,-18.2 9.3,-20.4 0.16,-0.367 0.427,-0.678 0.766,-0.892 0.338,-0.214 0.734,-0.321 1.134,-0.308 h 0.6 c 0.307,-0.001 0.61,0.062 0.891,0.184 0.281,0.123 0.533,0.303 0.74,0.529 0.207,0.226 0.365,0.493 0.463,0.784 0.098,0.29 0.134,0.598 0.106,0.903 -0.995,5.907 -2.569,11.702 -4.7,17.3 4.7,-3.2 6.8,-3.2 9,0.1 5.4,-2.8 7.4,-2.9 9.3,1.3 1.9,4.2 1.6,5 0.6,8.4 -1,3.4 -2.5,3.7 -4.8,3.7 0,23.2 -1.5,31.9 -12.4,47.5 -9.7,13.9 -10.2,12.2 -23.4,8 -7.6,-2.4 -15.0999,-5.1 -19.9999,-7 -2.8393,-1.034 -5.2254,-3.032 -6.7422,-5.645 -1.5169,-2.614 -2.0683,-5.677 -1.5579,-8.655 0.9,-4.2 3.7001,-6.9 8.8001,-5.2 z"
     fill="#ffe75c"
     id="path322" />
  <path
     d="m 91.5,247.3 c 0.5389,-0.637 1.0397,-1.304 1.5,-2 0.2674,-0.371 0.4523,-0.795 0.5419,-1.244 0.0897,-0.448 0.0822,-0.911 -0.022,-1.356 -0.1043,-0.446 -0.3029,-0.864 -0.5823,-1.226 C 92.6581,241.112 92.3044,240.814 91.9,240.6 64.6,225.6 55,223.8 40,223.8 c -9.7,0 -9.2001,2.5 -8.3001,7.1 -6.9,6.4 -6.8,8.6 -2,14.9 4.8,6.3 6.3001,8.8 10.8001,8.8 4.5,0 14.9999,0.1 24.1999,-4.6 9.2,-4.7 13.6001,-7.1 26.8001,-2.7 z"
     fill="#ffffff"
     id="path324" />
  <path
     d="m 91.0999,202 c -11.1,-1.9 -22.4,-3.1 -22.5,-3.1 -0.1131,-0.014 -0.228,-0.004 -0.3369,0.03 -0.1089,0.033 -0.2093,0.09 -0.2945,0.166 -0.0853,0.076 -0.1533,0.169 -0.1996,0.273 -0.0463,0.104 -0.0699,0.217 -0.069,0.331 -0.0303,0.224 0.0249,0.452 0.1547,0.637 0.1297,0.185 0.3244,0.315 0.5454,0.363 0.2,0 12,1.2 23.4,3.2 -0.2,-0.6 -0.4001,-1.2 -0.7001,-1.9 z"
     fill="#000000"
     id="path326" />
  <path
     d="m 68.8,198.4 c -0.5939,0.863 -1.1285,1.765 -1.6,2.7"
     stroke="#000000"
     stroke-width="2"
     stroke-linecap="round"
     stroke-linejoin="round"
     id="path328" />
  <path
     d="m 107.3,252.7 6.6,1.9"
     stroke="#000000"
     stroke-width="2"
     stroke-linecap="round"
     stroke-linejoin="round"
     id="path330" />
  <path
     d="m 50.4,183.7 c -0.1024,0.377 -0.2362,0.745 -0.4,1.1 -0.069,0.161 -0.1791,0.302 -0.3196,0.407 -0.1404,0.105 -0.3062,0.172 -0.4804,0.193 h -0.3 c -0.1098,-0.033 -0.2114,-0.088 -0.2978,-0.164 -0.0864,-0.075 -0.1557,-0.168 -0.2032,-0.272 -0.0474,-0.104 -0.0718,-0.218 -0.0716,-0.332 1e-4,-0.115 0.0249,-0.228 0.0726,-0.332 0.1,-0.3 2.2,-6.5 4.1,-10.9 0.0802,-0.178 0.2224,-0.32 0.4,-0.4 0,1.2 0.1,2.3 0.2,3.5 0.1,1.2 -2.1,5.4 -2.7,7.2 z"
     fill="#ffc619"
     id="path332" />
  <path
     d="m 143.8,248 c 0.359,-1.063 0.465,-2.195 0.308,-3.307 -0.156,-1.111 -0.57,-2.17 -1.208,-3.093 -0.444,-0.523 -0.947,-0.993 -1.5,-1.4 -1.244,-0.708 -2.662,-1.055 -4.093,-1.002 -1.43,0.053 -2.818,0.504 -4.007,1.302 0.6,-3.4 1.4,-9.6 0.8,-14.3 -0.6,-4.7 -2.4,-4.1 -3.5,-4.3 -3.2,-0.6 -7.6,2.8 -11.5,8.9 -0.7,-3.3 -1.7,-4.9 -3.3,-5.3 -0.437,-0.088 -0.891,-0.027 -1.289,0.172 -0.399,0.199 -0.719,0.526 -0.911,0.928 l -1.5,3.6 c 2,-3 3.1,-3 3.4,-3 0.3,0 1.6,0.8 2.3,6.2 0.021,0.178 0.102,0.344 0.229,0.471 0.127,0.127 0.293,0.208 0.471,0.229 0.187,0.036 0.381,0.017 0.558,-0.054 0.178,-0.071 0.331,-0.191 0.442,-0.346 4.1,-7.5 8.5,-10.5 10.8,-10.1 2.3,0.4 1.9,1.7 2,2.9 0.9,6.1 -1.1,15.8 -1.1,15.9 -0.028,0.173 -0.005,0.35 0.066,0.51 0.071,0.159 0.187,0.295 0.334,0.39 0.176,0.082 0.37,0.116 0.563,0.098 0.194,-0.017 0.379,-0.086 0.537,-0.198 2.2,-2.3 5.6,-2.9 7.7,-1.5 2.1,1.4 3.1,6.5 0.8,12.8 1.054,-2.087 1.925,-4.262 2.6,-6.5 z"
     fill="#fff4b3"
     id="path334" />
  <path
     d="m 127.2,207.1 c 3.4,-1.9 4.6,-3 7.6,0 4,-2.1 4.8,-2.1 7,1.1"
     stroke="#ffc619"
     stroke-width="2"
     stroke-linecap="round"
     stroke-linejoin="round"
     id="path336" />
  <path
     d="m 148.6,217.9 c -0.1,-2.8 -0.4,-7.1 -0.5,-7.2 0.001,-0.114 -0.023,-0.227 -0.069,-0.331 -0.046,-0.104 -0.114,-0.197 -0.2,-0.273 -0.085,-0.076 -0.185,-0.133 -0.294,-0.166 -0.109,-0.034 -0.224,-0.044 -0.337,-0.03 -0.114,-0.001 -0.227,0.023 -0.331,0.069 -0.104,0.046 -0.197,0.114 -0.273,0.2 -0.076,0.085 -0.133,0.185 -0.166,0.294 -0.034,0.109 -0.044,0.224 -0.03,0.337 0,0.1 0.4,4.4 0.4,7.2 -0.005,0.054 0.002,0.109 0.019,0.16 0.017,0.052 0.045,0.099 0.081,0.14 h 1.6 z"
     fill="#000000"
     id="path338" />
  <path
     d="m 149.7,214.5 h -2.2 c -0.118,0 -0.235,-0.023 -0.344,-0.068 -0.11,-0.046 -0.209,-0.112 -0.292,-0.196 -0.084,-0.083 -0.15,-0.182 -0.196,-0.292 -0.045,-0.109 -0.068,-0.226 -0.068,-0.344 0.025,-0.221 0.13,-0.425 0.296,-0.573 0.167,-0.147 0.382,-0.228 0.604,-0.227 h 2.2 c 0.222,-0.001 0.437,0.08 0.603,0.227 0.167,0.148 0.272,0.352 0.297,0.573 0,0.118 -0.023,0.235 -0.069,0.344 -0.045,0.11 -0.111,0.209 -0.195,0.292 -0.083,0.084 -0.182,0.15 -0.292,0.196 -0.109,0.045 -0.226,0.068 -0.344,0.068 z"
     fill="#000000"
     id="path340" />
  <path
     d="m 118.5,272.4 c 2.111,-0.052 4.217,-0.252 6.3,-0.6"
     stroke="#ffc619"
     stroke-width="2"
     stroke-linecap="round"
     stroke-linejoin="round"
     id="path342" />
  <path
     d="M 54.5,294.2 C 43.1,292.8 38,290.7 37.9,290.7 h -0.1 v 1.8 c 1.7,0.6 6.8,2.2 16.5,3.5 h 0.1 c 0.2224,10e-4 0.4374,-0.08 0.6035,-0.227 0.1662,-0.148 0.2718,-0.352 0.2965,-0.573 0.0139,-0.118 0.0042,-0.238 -0.0286,-0.353 -0.0328,-0.114 -0.0881,-0.221 -0.1625,-0.314 -0.0744,-0.093 -0.1665,-0.17 -0.271,-0.228 -0.1045,-0.057 -0.2194,-0.093 -0.3379,-0.105 z"
     fill="#000000"
     id="path344" />
  <path
     d="m 96.9,289.6 c -2.5514,0.813 -4.856,2.258 -6.7,4.2"
     stroke="#000000"
     stroke-width="2"
     stroke-linecap="round"
     stroke-linejoin="round"
     id="path346" />
  <path
     d="m 133.7,297.9 c 4.041,-1.788 7.951,-3.86 11.7,-6.2"
     stroke="#000000"
     stroke-width="2"
     stroke-linecap="round"
     stroke-linejoin="round"
     id="path348" />
  <path
     d="m 135.7,297 5.3,0.2"
     stroke="#000000"
     stroke-width="2"
     stroke-linecap="round"
     stroke-linejoin="round"
     id="path350" />
  <path
     d="m 32.6,230.4 c 16.6,-1.6 28.4,2.2 44.7,9.5 -16.3,-1.1 -35.5,-1.7 -35.5,-1.7"
     stroke="#bae8ff"
     stroke-width="2"
     stroke-linecap="round"
     stroke-linejoin="round"
     id="path352" />
  <path
     d="m 28.1,312.5 h 66.6 c 0.9547,0 1.8705,0.379 2.5456,1.054 0.6751,0.676 1.0544,1.591 1.0544,2.546 v 43.3 H 24.5 v -43.3 c 0,-0.955 0.3793,-1.87 1.0544,-2.546 0.6752,-0.675 1.5908,-1.054 2.5456,-1.054 z"
     fill="#8cd9ff"
     id="path354" />
  <path
     d="m 91.7,312.5 h 3 c 0.9547,0 1.8705,0.379 2.5456,1.054 0.6751,0.676 1.0544,1.591 1.0544,2.546 v 43.3 H 88.1 v -43.3 c 0,-0.473 0.0931,-0.941 0.274,-1.378 0.1809,-0.436 0.4461,-0.833 0.7804,-1.168 0.3343,-0.334 0.7312,-0.599 1.168,-0.78 0.4368,-0.181 0.9048,-0.274 1.3776,-0.274 z"
     fill="#45aaf7"
     id="path356" />
  <path
     d="m 34.3,345.6 h 44 c 0.7957,0 1.5587,0.316 2.1213,0.879 0.5626,0.562 0.8787,1.325 0.8787,2.121 v 10.8 H 31.4 v -10.8 c -4e-4,-0.779 0.3019,-1.527 0.843,-2.087 0.5412,-0.56 1.2789,-0.887 2.057,-0.913 z"
     fill="#45aaf7"
     id="path358" />
  <path
     d="m 36.3,312.5 v 46.9"
     stroke="#5865f2"
     stroke-width="2"
     stroke-miterlimit="10"
     id="path360" />
  <path
     d="m 76.2,312.5 v 46.9"
     stroke="#5865f2"
     stroke-width="2"
     stroke-miterlimit="10"
     id="path362" />
  <path
     d="M 78.7,316.1 H 33.8 c -1.3807,0 -2.5,1.119 -2.5,2.5 v 15.99 c 0,1.381 1.1193,2.5 2.5,2.5 h 44.9 c 1.3807,0 2.5,-1.119 2.5,-2.5 V 318.6 c 0,-1.381 -1.1193,-2.5 -2.5,-2.5 z"
     fill="#000000"
     id="path364" />
  <path
     d="m 87.1999,319.5 c -0.1352,-0.016 -0.2722,-10e-4 -0.4009,0.043 -0.1286,0.045 -0.2455,0.118 -0.3418,0.214 -0.0963,0.097 -0.1694,0.213 -0.214,0.342 -0.0445,0.129 -0.0594,0.266 -0.0433,0.401 0,0.265 0.1054,0.52 0.293,0.707 0.1875,0.188 0.4418,0.293 0.707,0.293 H 98.3 v -2 z"
     fill="#5865f2"
     id="path366" />
  <path
     d="m 86.1999,324.8 c -0.0161,0.135 -0.0012,0.272 0.0433,0.401 0.0446,0.129 0.1177,0.245 0.214,0.342 0.0963,0.096 0.2132,0.169 0.3418,0.214 0.1287,0.044 0.2657,0.059 0.4009,0.043 H 98.3 v -2 H 87.1999 c -0.2652,0 -0.5195,0.105 -0.707,0.293 -0.1876,0.187 -0.293,0.442 -0.293,0.707 z"
     fill="#5865f2"
     id="path368" />
  <path
     d="m 86.1999,329.2 c 0,0.265 0.1054,0.52 0.293,0.707 0.1875,0.188 0.4418,0.293 0.707,0.293 H 98.3 v -2 H 87.1999 c -0.1352,-0.016 -0.2722,-10e-4 -0.4009,0.043 -0.1286,0.045 -0.2455,0.118 -0.3418,0.214 -0.0963,0.097 -0.1694,0.214 -0.214,0.342 -0.0445,0.129 -0.0594,0.266 -0.0433,0.401 z"
     fill="#5865f2"
     id="path370" />
  <path
     d="m 26.3,320.5 c -0.0225,0.258 -0.1351,0.499 -0.3179,0.682 -0.1829,0.183 -0.4244,0.295 -0.6821,0.318 h -0.8 v -2 h 0.8 c 0.2653,0 0.5195,0.105 0.7071,0.293 0.1875,0.187 0.2929,0.442 0.2929,0.707 z"
     fill="#5865f2"
     id="path372" />
  <path
     d="m 26.3,324.8 c 0,0.265 -0.1054,0.52 -0.2929,0.707 -0.1876,0.188 -0.4418,0.293 -0.7071,0.293 h -0.8 v -2 h 0.8 c 0.2577,0.023 0.4992,0.135 0.6821,0.318 0.1828,0.183 0.2954,0.424 0.3179,0.682 z"
     fill="#5865f2"
     id="path374" />
  <path
     d="m 26.3,329.2 c -0.0225,0.258 -0.1351,0.499 -0.3179,0.682 -0.1829,0.183 -0.4244,0.296 -0.6821,0.318 h -0.8 v -2 h 0.8 c 0.2653,0 0.5195,0.105 0.7071,0.293 0.1875,0.187 0.2929,0.442 0.2929,0.707 z"
     fill="#5865f2"
     id="path376" />
  <path
     d="M 65.9,317.6 H 36.6 c -0.718,0 -1.3,0.582 -1.3,1.3 v 13.85 c 0,0.718 0.582,1.3 1.3,1.3 h 29.3 c 0.718,0 1.3,-0.582 1.3,-1.3 V 318.9 c 0,-0.718 -0.582,-1.3 -1.3,-1.3 z"
     fill="#fff4b3"
     id="path378" />
  <path
     d="m 78.3,334.1 h -8 c -0.497,0 -0.9,0.403 -0.9,0.9 v 1.22 c 0,0.497 0.403,0.9 0.9,0.9 h 8 c 0.4971,0 0.9,-0.403 0.9,-0.9 V 335 c 0,-0.497 -0.4029,-0.9 -0.9,-0.9 z"
     fill="#ff78b9"
     id="path380" />
  <path
     d="m 47.1,319.5 c 0,2.44 0.9694,4.78 2.6947,6.505 1.7253,1.726 4.0654,2.695 6.5054,2.695 2.44,0 4.78,-0.969 6.5053,-2.695 1.7254,-1.725 2.6946,-4.065 2.6946,-6.505 -0.0119,-0.638 -0.0788,-1.274 -0.1999,-1.9 h -18 c -0.1713,0.618 -0.2389,1.26 -0.2001,1.9 z"
     fill="#29cc7a"
     id="path382" />
  <path
     d="m 38,334.1 h 15 c -0.8504,-1.197 -1.975,-2.173 -3.2798,-2.847 -1.3048,-0.673 -2.7518,-1.025 -4.2202,-1.025 -1.4684,0 -2.9154,0.352 -4.2202,1.025 -1.3048,0.674 -2.4294,1.65 -3.2798,2.847 z"
     fill="#29cc7a"
     id="path384" />
</svg>
